<svg width="32" height="32" viewBox="0 0 32 32" fill="none" xmlns="http://www.w3.org/2000/svg">
<path d="M30 17C30.5523 17 31 16.5523 31 16C31 15.4477 30.5523 15 30 15V17ZM30 15L18 15V17H30V15Z" fill="#4381df"/>
<path d="M2 15C1.44772 15 1 15.4477 1 16C1 16.5523 1.44772 17 2 17L2 15ZM12 17H13V15L12 15V17ZM2 17L12 17V15L2 15L2 17Z" fill="#4381df"/>
<path d="M13 16L10 21" stroke="#4381df" stroke-width="2" stroke-linecap="round"/>
<path d="M13 16L10 11" stroke="#4381df" stroke-width="2" stroke-linecap="round"/>
<path d="M18 16L21 21" stroke="#4381df" stroke-width="2" stroke-linecap="round"/>
<path d="M18 16L21 11" stroke="#4381df" stroke-width="2" stroke-linecap="round"/>
</svg>
