<svg width="24" height="24" viewBox="0 0 20 24" fill="none" xmlns="http://www.w3.org/2000/svg">
<path d="M11 3C11 2.44772 10.5523 2 10 2C9.44772 2 9 2.44772 9 3H11ZM9.29289 19.7071C9.68342 20.0976 10.3166 20.0976 10.7071 19.7071L17.0711 13.3431C17.4616 12.9526 17.4616 12.3195 17.0711 11.9289C16.6805 11.5384 16.0474 11.5384 15.6569 11.9289L10 17.5858L4.34315 11.9289C3.95262 11.5384 3.31946 11.5384 2.92893 11.9289C2.53841 12.3195 2.53841 12.9526 2.92893 13.3431L9.29289 19.7071ZM9 3L9 19H11V3H9Z" fill="#4381df"/>
<path d="M3 21L17 21" stroke="#4381df" stroke-width="2" stroke-linecap="round"/>
</svg>
