<svg width="60" height="60" viewBox="0 0 60 60" fill="none" xmlns="http://www.w3.org/2000/svg">
<path fill-rule="evenodd" clip-rule="evenodd" d="M36.414 4.586L49.414 17.586C49.79 17.962 50 18.47 50 19V52C50 54.21 48.21 56 46 56H14C11.79 56 10 54.21 10 52V8C10 5.79 11.79 4 14 4H35C35.53 4 36.038 4.21 36.414 4.586ZM34 18C34 19.104 34.896 20 36 20H46.192L34 7.808V18ZM32.7406 26.6006C33.3672 26.9755 34.0039 27.3565 35.7382 27.3565C36.3498 27.3565 36.68 27.5288 36.68 28.2646V30.8245C36.68 31.64 35.72 31.64 35.72 31.64C33.8693 31.64 33.1974 31.2188 32.5804 30.832C32.0566 30.5036 31.5724 30.2 30.44 30.2C30.056 30.2 29.9624 30.5096 29.96 31.16V36.92V40.28C29.96 41.5674 29.8904 44.12 26.5693 44.12C22.9947 44.12 22.76 42.3838 22.76 41.24C22.76 39.5427 23.8827 38.84 26.6 38.84C28.5046 38.84 29 37.9827 29 36.92V26.84C29 26.36 29.192 25.88 29.96 25.88C31.5363 25.88 32.1337 26.2375 32.7406 26.6006Z" fill="black"/>
</svg>
