<?xml version="1.0"?><svg xmlns="http://www.w3.org/2000/svg"  viewBox="0 0 30 30" width="60px" height="60px">    <path d="M 7 2 C 5.895 2 5 2.895 5 4 L 5 26 C 5 27.105 5.895 28 7 28 L 23 28 C 24.105 28 25 27.105 25 26 L 25 9.5 C 25 9.235 24.895031 8.9809688 24.707031 8.7929688 L 18.207031 2.2929688 C 18.019031 2.1049688 17.765 2 17.5 2 L 7 2 z M 17 3.9042969 L 23.095703 10 L 18 10 C 17.448 10 17 9.552 17 9 L 17 3.9042969 z M 10 10 C 11.105 10 12 10.895 12 12 C 12 13.105 11.105 14 10 14 C 8.895 14 8 13.105 8 12 C 8 10.895 8.895 10 10 10 z M 12 18.001953 C 12.61925 18.001953 13.238437 18.238437 13.710938 18.710938 L 15 20 L 15.015625 19.984375 L 16.185547 21.15625 C 16.607547 21.57825 17.288937 21.574344 17.710938 21.152344 C 18.132938 20.730344 18.132938 20.044094 17.710938 19.621094 L 16.570312 18.480469 C 17.517285 17.782223 18.853612 17.853612 19.710938 18.710938 L 22 21 L 22 24 L 8 24 L 8 21 L 10.289062 18.710938 C 10.761563 18.238437 11.38075 18.001953 12 18.001953 z"/></svg>