<svg width="60" height="60" viewBox="0 0 60 60" fill="none" xmlns="http://www.w3.org/2000/svg">
<path fill-rule="evenodd" clip-rule="evenodd" d="M36.414 4.586L49.414 17.586C49.79 17.962 50 18.47 50 19V52C50 54.21 48.21 56 46 56H14C11.79 56 10 54.21 10 52V8C10 5.79 11.79 4 14 4H35C35.53 4 36.038 4.21 36.414 4.586ZM34 18C34 19.104 34.896 20 36 20H46.192L34 7.808V18ZM37.4393 47.7363C37.4393 47.9268 37.615 48.022 37.9666 48.022H38.0691C38.4158 48.022 38.5892 47.9268 38.5892 47.7363V43.8252H41.702C41.7898 43.8252 41.8558 43.7959 41.8997 43.7373C41.9437 43.6738 41.9656 43.5737 41.9656 43.437V43.2393C41.9656 43.1025 41.9437 43.0024 41.8997 42.939C41.8558 42.8755 41.7898 42.8438 41.702 42.8438H38.5892V39.8774H41.9363C42.0291 39.8774 42.095 39.8457 42.1341 39.7822C42.1731 39.7188 42.1927 39.6211 42.1927 39.4893V39.2769C42.1927 39.1401 42.1731 39.0425 42.1341 38.9839C42.095 38.9204 42.0291 38.8887 41.9363 38.8887H37.8348C37.698 38.8887 37.5979 38.9204 37.5345 38.9839C37.471 39.0425 37.4393 39.1401 37.4393 39.2769V47.7363ZM27.432 48C27.2953 48 27.1952 47.9683 27.1317 47.9048C27.0683 47.8413 27.0365 47.7437 27.0365 47.6118V39.2769C27.0365 39.1401 27.0683 39.0425 27.1317 38.9839C27.1952 38.9204 27.2953 38.8887 27.432 38.8887H30.0614C31.2821 38.8887 32.2587 39.25 32.9911 39.9727C33.7235 40.6953 34.0897 41.8501 34.0897 43.437C34.0897 45.0337 33.7235 46.1934 32.9911 46.916C32.2587 47.6387 31.2821 48 30.0614 48H27.432ZM29.9735 47.0112C30.8524 47.0112 31.5604 46.7256 32.0976 46.1543C32.6347 45.5781 32.9032 44.6724 32.9032 43.437C32.9032 42.6069 32.7763 41.9282 32.5224 41.4009C32.2685 40.8687 31.9218 40.4829 31.4823 40.2437C31.0429 39.9995 30.5399 39.8774 29.9735 39.8774H28.1864V47.0112H29.9735ZM18.2305 47.9561C18.3135 48 18.4453 48.022 18.626 48.022H18.7358C18.9116 48.022 19.041 48 19.124 47.9561C19.207 47.9072 19.2485 47.834 19.2485 47.7363V44.1182H21.27C21.6069 44.1182 21.9854 44.0522 22.4053 43.9204C22.8252 43.7837 23.2036 43.5176 23.5405 43.1221C23.8774 42.7217 24.0459 42.1602 24.0459 41.4375C24.0459 40.4658 23.7505 39.7993 23.1597 39.438C22.5737 39.0718 21.8999 38.8887 21.1382 38.8887H18.5015C18.3647 38.8887 18.2646 38.918 18.2012 38.9766C18.1426 39.0352 18.1133 39.1353 18.1133 39.2769V47.7363C18.1133 47.834 18.1523 47.9072 18.2305 47.9561ZM21.9731 42.9902C21.7339 43.083 21.5044 43.1294 21.2847 43.1294H19.2485V39.8774H21.1016C21.585 39.8774 21.9976 39.9922 22.3394 40.2217C22.686 40.4512 22.8594 40.8564 22.8594 41.4375C22.8594 41.8721 22.7715 42.2163 22.5957 42.4702C22.4199 42.7192 22.2124 42.8926 21.9731 42.9902Z" fill="black"/>
</svg>
