<svg width="60" height="60" viewBox="0 0 60 60" fill="none" xmlns="http://www.w3.org/2000/svg">
<path fill-rule="evenodd" clip-rule="evenodd" d="M49.414 17.586L36.414 4.586C36.038 4.21 35.53 4 35 4H14C11.79 4 10 5.79 10 8V52C10 54.21 11.79 56 14 56H46C48.21 56 50 54.21 50 52V19C50 18.47 49.79 17.962 49.414 17.586ZM36 20C34.896 20 34 19.104 34 18V7.808L46.192 20H36ZM38.7987 50.0176C38.6893 50.0176 38.6092 50 38.5584 49.9648C38.5116 49.9258 38.4881 49.8672 38.4881 49.7891V48.2598H35.3182C35.2635 48.2598 35.2069 48.1973 35.1483 48.0723C35.0936 47.9473 35.0662 47.834 35.0662 47.7324C35.0662 47.666 35.0741 47.625 35.0897 47.6094L38.5174 42.834C38.5526 42.7871 38.6014 42.75 38.6639 42.7227C38.7303 42.6953 38.7987 42.6816 38.869 42.6816H39.0389C39.2459 42.6816 39.3495 42.7598 39.3495 42.916V47.5098H40.0467C40.1873 47.5098 40.2577 47.6133 40.2577 47.8203V47.9492C40.2577 48.1562 40.1873 48.2598 40.0467 48.2598H39.3495V49.7891C39.3495 49.9414 39.2459 50.0176 39.0389 50.0176H38.7987ZM38.4881 47.5098V44.1992L38.4471 44.1758L36.0975 47.5098H38.4881ZM28.8417 49.9648C28.9081 50 29.0136 50.0176 29.1581 50.0176H29.246C29.3866 50.0176 29.4902 50 29.5566 49.9648C29.623 49.9258 29.6562 49.8672 29.6562 49.7891V46.8945H31.2734C31.5429 46.8945 31.8456 46.8418 32.1816 46.7363C32.5175 46.627 32.8202 46.4141 33.0898 46.0977C33.3593 45.7773 33.4941 45.3281 33.4941 44.75C33.4941 43.9727 33.2577 43.4395 32.7851 43.1504C32.3163 42.8574 31.7773 42.7109 31.1679 42.7109H29.0585C28.9491 42.7109 28.8691 42.7344 28.8183 42.7812C28.7714 42.8281 28.748 42.9082 28.748 43.0215V49.7891C28.748 49.8672 28.7792 49.9258 28.8417 49.9648ZM31.8359 45.9922C31.6445 46.0664 31.4609 46.1035 31.2851 46.1035H29.6562V43.502H31.1386C31.5253 43.502 31.8554 43.5938 32.1288 43.7773C32.4062 43.9609 32.5448 44.2852 32.5448 44.75C32.5448 45.0977 32.4745 45.373 32.3339 45.5762C32.1933 45.7754 32.0273 45.9141 31.8359 45.9922ZM19.3594 50.0176C19.2109 50.0176 19.1035 50 19.0371 49.9648C18.9707 49.9258 18.9375 49.8672 18.9375 49.7891V42.916C18.9375 42.7598 19.0781 42.6816 19.3594 42.6816H19.7285C19.959 42.6816 20.1055 42.7461 20.168 42.875L22.1367 46.291L22.4062 46.9473L22.6758 46.3496L24.6504 42.875C24.7168 42.7461 24.8613 42.6816 25.084 42.6816H25.4297C25.707 42.6816 25.8457 42.7598 25.8457 42.916V49.7891C25.8457 49.9414 25.707 50.0176 25.4297 50.0176H25.3594C25.2109 50.0176 25.1035 50 25.0371 49.9648C24.9707 49.9258 24.9375 49.8672 24.9375 49.7891V44.1816L24.9199 44.2285L22.8457 47.832C22.8184 47.8789 22.7871 47.9141 22.752 47.9375C22.7168 47.957 22.6719 47.9668 22.6172 47.9668H22.2012C22.0957 47.9668 22.0176 47.9219 21.9668 47.832L19.8457 44.123V49.7891C19.8457 49.9414 19.707 50.0176 19.4297 50.0176H19.3594ZM34.7519 30.8321C35.3457 30.4362 35.3457 29.5638 34.7519 29.1679L25.5547 23.0365C24.8901 22.5934 24 23.0698 24 23.8685V36.1315C24 36.9302 24.8901 37.4066 25.5547 36.9635L34.7519 30.8321Z" fill="black"/>
</svg>
