<svg width="60" height="60" viewBox="0 0 60 60" fill="none" xmlns="http://www.w3.org/2000/svg">
<path fill-rule="evenodd" clip-rule="evenodd" d="M36.414 4.586L49.414 17.586C49.79 17.962 50 18.47 50 19V52C50 54.21 48.21 56 46 56H14C11.79 56 10 54.21 10 52V8C10 5.79 11.79 4 14 4H35C35.53 4 36.038 4.21 36.414 4.586ZM34 18C34 19.104 34.896 20 36 20H46.192L34 7.808V18ZM34.6346 47.9561C34.7176 48 34.8494 48.022 35.0301 48.022H35.1399C35.3157 48.022 35.4451 48 35.5281 47.9561C35.6111 47.9072 35.6526 47.834 35.6526 47.7363V44.1182H37.6741C38.011 44.1182 38.3895 44.0522 38.8094 43.9204C39.2293 43.7837 39.6077 43.5176 39.9446 43.1221C40.2815 42.7217 40.45 42.1602 40.45 41.4375C40.45 40.4658 40.1546 39.7993 39.5638 39.438C38.9778 39.0718 38.304 38.8887 37.5423 38.8887H34.9056C34.7688 38.8887 34.6688 38.918 34.6053 38.9766C34.5467 39.0352 34.5174 39.1353 34.5174 39.2769V47.7363C34.5174 47.834 34.5564 47.9072 34.6346 47.9561ZM38.3772 42.9902C38.138 43.083 37.9085 43.1294 37.6888 43.1294H35.6526V39.8774H37.5057C37.9891 39.8774 38.4017 39.9922 38.7435 40.2217C39.0901 40.4512 39.2635 40.8564 39.2635 41.4375C39.2635 41.8721 39.1756 42.2163 38.9998 42.4702C38.824 42.7192 38.6165 42.8926 38.3772 42.9902ZM30.1645 48.022C29.8129 48.022 29.6371 47.9268 29.6371 47.7363V39.145C29.6371 38.9497 29.8129 38.8521 30.1645 38.8521H30.267C30.6137 38.8521 30.787 38.9497 30.787 39.145V47.7363C30.787 47.9268 30.6137 48.022 30.267 48.022H30.1645ZM19.6006 47.7583C19.6738 47.9194 19.7446 48 19.813 48H26.1484C26.2412 48 26.3071 47.9658 26.3462 47.8975C26.3901 47.8242 26.4121 47.7095 26.4121 47.5532V47.4507C26.4121 47.2944 26.3901 47.1821 26.3462 47.1138C26.3071 47.0454 26.2412 47.0112 26.1484 47.0112H21.0581L26.3975 39.731C26.4219 39.6919 26.4341 39.6406 26.4341 39.5771C26.4341 39.4893 26.417 39.3916 26.3828 39.2842C26.3486 39.1768 26.3071 39.084 26.2583 39.0059C26.2144 38.9277 26.1777 38.8887 26.1484 38.8887H20.1865C20.0938 38.8887 20.0254 38.9229 19.9814 38.9912C19.9424 39.0596 19.9229 39.1719 19.9229 39.3281V39.4307C19.9229 39.5869 19.9424 39.7017 19.9814 39.7749C20.0254 39.8433 20.0938 39.8774 20.1865 39.8774H24.874L19.5347 47.1504C19.5103 47.1895 19.498 47.2432 19.498 47.3115C19.498 47.4434 19.5322 47.5923 19.6006 47.7583Z" fill="black"/>
</svg>
